<svg width="536" height="54" viewBox="0 0 536 54" fill="none" xmlns="http://www.w3.org/2000/svg">
<path d="M535.623 42.834V20.2565L533.98 16.5095L532.478 13.086L529.236 5.69714L527.485 1.70494L526.922 0.42201L526.737 0H202.8H201.355H172.233H169.01H144.284H142.617H119.953H118.61H95.4149H94.0281H43.8569H42.3257H16.3797H14.0717H10.6204L3.03439 10.5503L0 43.467L5.24373 46.7994L6.91544 47.8619L15.6055 53.3843H36.4423H37.9917H100.55H102.336H119.682H127.214H130.16H193.099H195.561H522.342H523.693H526.737L526.935 53.1493L527.415 52.5796L528.663 51.0982L529.039 50.6509L535.623 42.834Z" fill="#EEC14A"/>
<path fill-rule="evenodd" clip-rule="evenodd" d="M438.646 27.8419L444.958 0H446.096L439.8 27.7693L446.747 48.671L454.742 53.1733H452.246L445.871 49.5831L438.646 27.8419ZM510.141 53.1733L520.487 31.7449L520.574 31.5642L520.551 31.3594L517.3 2.42518L517.261 2.33241L516.273 0H515.048L516.231 2.79051L519.435 31.3151L509.094 52.7353L508.055 53.1733H510.141Z" fill="#F4D686"/>
<path fill-rule="evenodd" clip-rule="evenodd" d="M500.519 36.9848L493.048 41.8812L477.082 45.2054L466.539 41.1429L466.308 41.0536L461.874 31.752L461.845 31.6905L460.518 24.4077L460.508 24.3511L460.802 18.5037L460.843 18.4136L465.918 7.27409L477.371 1.90674L491.745 4.0276L491.852 4.0435L491.947 4.08958L500.454 8.22187L501.813 11.2832L501.672 14.0804L499.425 9.01835L491.411 5.1259L477.575 3.08387L466.931 8.07233L462.073 18.7331L461.795 24.2716L463.088 31.3665L467.297 40.1968L477.218 44.0206L492.507 40.8369L500.592 35.5378L500.519 36.9848Z" fill="#F4D686"/>
<path fill-rule="evenodd" clip-rule="evenodd" d="M420.102 0.0146484L417.005 9.87109L416.971 9.97699V43.1266L425.627 53.5953H427.147L426.973 53.3843L418.078 42.6262V10.2032L421.491 0.0146484H420.102ZM527.282 52.0974L528.378 50.8275L528.955 50.1638L534.879 26.5362L533.927 16.5095L532.489 13.086L533.755 26.4299L527.282 52.0974Z" fill="#F4D686"/>
<path fill-rule="evenodd" clip-rule="evenodd" d="M6.91544 47.8619L13.7365 46.9832L19.8544 39.5919L19.8882 39.5511L19.9149 39.5058L25.7923 29.352V13.6807L17.7373 0.901305L17.6222 0.825063L16.3797 0H14.0717L16.7747 1.79478L24.4919 14.038V29.0198L18.8075 38.8385L13.0503 45.7943L5.24373 46.7994L6.91544 47.8619Z" fill="#F4D686"/>
<path fill-rule="evenodd" clip-rule="evenodd" d="M37.6643 0H39.0268L43.782 8.33665V36.3715L33.8076 53.1733H32.4289L42.6247 35.9988V8.69706L37.6643 0Z" fill="#F4D686"/>
<path fill-rule="evenodd" clip-rule="evenodd" d="M63.6731 0H65.0356L69.7907 8.33665V36.3715L59.8164 53.1733H58.4377L68.6335 35.9988V8.69706L63.6731 0Z" fill="#F4D686"/>
<path fill-rule="evenodd" clip-rule="evenodd" d="M144.108 0.126495L144.992 6.45742L152.384 11.7018L152.425 11.7309L152.47 11.7537L162.624 16.792L178.295 16.792L191.074 9.88705L191.151 9.78834L193.827 0.113281L192.565 0.113281L190.181 9.06185L177.938 15.6772L162.956 15.6772L153.137 10.8044L146.181 5.86918C145.995 3.62652 145.89 2.36915 145.704 0.126495L144.108 0.126495Z" fill="#F4D686"/>
<path fill-rule="evenodd" clip-rule="evenodd" d="M122.215 0.106609L123.747 12.3843L136.73 21.5961L136.802 21.6471L136.881 21.6873L154.716 30.5371L182.243 30.5371L204.69 18.4085L204.824 18.2351L209.647 0.100098L207.983 0.100098L203.521 17.3738L181.468 29.1041L155.477 29.1041L137.756 20.5388L125.127 11.5872L124.163 0.106609L122.215 0.106609Z" fill="#F4D686"/>
<path fill-rule="evenodd" clip-rule="evenodd" d="M105.412 0.12207L114.315 25.4627L135.646 33.2718L148.927 42.7303L187.348 47.9761L203.651 31.6842L203.789 31.5051L213.161 17.7222L217.39 0.12207L215.493 0.122074L211.687 17.7222L202.443 30.6156L186.806 46.8209L149.886 41.431L136.753 31.5051L115.74 24.6394L106.971 0.12207L105.412 0.12207Z" fill="#F4D686"/>
<path fill-rule="evenodd" clip-rule="evenodd" d="M294.163 53.5869L295.047 47.256L302.439 42.0115L302.479 41.9825L302.525 41.9596L312.678 36.9214L328.35 36.9214L341.129 43.8263L341.205 43.925L343.882 53.6001L342.62 53.6001L340.236 44.6515L327.992 38.0361L313.011 38.0361L303.192 42.909L296.236 47.8442L295.759 53.5869L294.163 53.5869Z" fill="#F4D686"/>
<path fill-rule="evenodd" clip-rule="evenodd" d="M272.27 53.6068L273.802 41.329L286.785 32.1172L286.856 32.0662L286.936 32.0261L304.771 23.1763L332.298 23.1763L354.745 35.3049L354.879 35.4783L359.702 53.6133L358.037 53.6133L353.576 36.3396L331.523 24.6093L305.532 24.6093L287.81 33.1746L275.182 42.1262L274.218 53.6068L272.27 53.6068Z" fill="#F4D686"/>
<path fill-rule="evenodd" clip-rule="evenodd" d="M255.467 53.5913C258.943 43.6952 260.893 38.1468 264.369 28.2507L285.701 20.4416L298.982 10.9831L337.403 5.7373L353.705 22.0292L353.844 22.2082L363.216 35.9912L367.444 53.5913L365.547 53.5913L361.742 35.9912L352.498 23.0977L336.861 6.89247L299.94 12.2824L286.807 22.2082L265.795 29.074L257.026 53.5913L255.467 53.5913Z" fill="#F4D686"/>
</svg>
