<svg width="105" height="97" viewBox="0 0 105 97" fill="none" xmlns="http://www.w3.org/2000/svg">
<path d="M49.4881 73.7422C49.4881 75.447 49.3489 77.0822 49.0648 78.6363C47.3716 75.9283 45.4116 73.4 43.2139 71.0979C45.0231 69.1959 46.6815 67.1374 48.166 64.9513C49.0474 67.5201 49.4881 70.4543 49.4881 73.7422Z" fill="#FEC54F"/>
<path d="M49.0656 78.637C48.2538 83.1368 46.2707 87.0046 43.1219 90.2577C38.8715 94.6357 33.3047 96.8219 26.41 96.8219C19.5153 96.8219 13.473 94.1081 8.30052 88.6688C7.40751 87.7294 6.58989 86.7205 5.84766 85.6477C6.89143 85.7231 7.9526 85.7579 9.01377 85.7579C22.4726 85.7579 34.6094 80.1273 43.2147 71.0987C45.4124 73.4008 47.3724 75.929 49.0656 78.637Z" fill="#EBB340"/>
<path d="M43.2131 71.0981C34.6078 80.1267 22.471 85.7573 9.01213 85.7573C7.95096 85.7573 6.88979 85.7225 5.84602 85.6471C3.56132 82.336 2.01306 78.3987 1.20703 73.8351C4.79065 67.0738 9.96892 61.2924 16.2432 56.9839C26.7911 58.6018 36.185 63.7163 43.2131 71.0981Z" fill="#FEC54F"/>
<path d="M48.1652 64.9516C46.6807 67.1377 45.0223 69.1962 43.2131 71.0982C36.185 63.7164 26.7911 58.6019 16.2432 56.9841C17.2289 56.3114 18.2379 55.6678 19.2701 55.0705V55.1053C19.4847 54.9661 19.6992 54.8386 19.9254 54.7052C20.1515 54.5718 20.3777 54.4442 20.6096 54.3225C20.7082 54.2703 20.8068 54.2181 20.9053 54.1659C21.3866 53.9166 21.8969 53.6788 22.4246 53.4527C24.2802 52.6524 26.8027 52.2581 29.9862 52.2581C35.292 52.2581 39.8672 54.1195 43.7118 57.8249C45.7182 59.7675 47.2084 62.145 48.1652 64.9516Z" fill="#FFD888"/>
<path d="M16.243 56.9837C9.96879 61.2921 4.79051 67.0735 1.20689 73.8348C0.760392 71.3414 0.540039 68.6565 0.540039 65.7862C0.540039 62.9158 0.777789 59.8888 1.25329 57.0707C3.77574 56.6474 6.36777 56.4328 9.01199 56.4328C11.4707 56.4328 13.8887 56.6184 16.243 56.9837Z" fill="#FFD888"/>
<path d="M21.8694 45.4914C20.2921 48.4255 19.4339 51.6148 19.2716 55.0709C18.2394 55.6682 17.2304 56.3118 16.2446 56.9845C13.8903 56.6191 11.4723 56.4336 9.01359 56.4336C6.36937 56.4336 3.77733 56.6481 1.25488 57.0714C1.49843 55.6218 1.80576 54.1953 2.17688 52.792C9.59346 52.4498 16.3896 49.7766 21.8694 45.4914Z" fill="#FEC54F"/>
<path d="M40.0811 16.6783C41.8758 16.2873 43.5141 17.7 43.5141 19.5368C43.5141 22.5947 43.5141 25.0987 43.5141 28.2913C43.5141 29.7289 42.4903 30.9517 41.0991 31.3138C36.9239 32.4006 33.1993 34.1431 29.9219 36.5378C33.2504 31.2203 35.1755 24.9287 35.1755 18.1964V18.005C36.7709 17.4848 38.4057 17.0434 40.0811 16.6783Z" fill="#FEC54F"/>
<path d="M35.1774 18.005V18.1964C35.1774 24.9287 33.2522 31.2204 29.9237 36.5378C28.6132 37.4946 27.3723 38.5558 26.2067 39.7213C24.4149 41.5189 22.9652 43.4383 21.8693 45.491C16.3895 49.7763 9.59334 52.4495 2.17676 52.7917C4.07294 45.5606 7.64497 38.9501 12.8812 32.96C19.1497 25.7753 26.5836 20.7884 35.1774 18.005Z" fill="#EBB340"/>
<path d="M104.977 57.6971C104.977 59.4019 104.838 61.0372 104.554 62.5912C102.861 59.8832 100.901 57.355 98.7031 55.0529C100.512 53.1509 102.171 51.0923 103.655 48.9062C104.537 51.4751 104.977 54.4092 104.977 57.6971Z" fill="#FEC54F"/>
<path d="M104.555 62.592C103.743 67.0918 101.76 70.9596 98.6112 74.2126C94.3607 78.5907 88.7939 80.7768 81.8992 80.7768C75.0045 80.7768 68.9623 78.063 63.7898 72.6238C62.8968 71.6844 62.0792 70.6754 61.3369 69.6026C62.3807 69.678 63.4419 69.7128 64.503 69.7128C77.9619 69.7128 90.0987 64.0823 98.704 55.0536C100.902 57.3557 102.862 59.884 104.555 62.592Z" fill="#EBB340"/>
<path d="M98.7023 55.053C90.097 64.0817 77.9603 69.7122 64.5014 69.7122C63.4402 69.7122 62.3791 69.6775 61.3353 69.6021C59.0506 66.291 57.5023 62.3536 56.6963 57.79C60.2799 51.0287 65.4582 45.2474 71.7324 40.9389C82.2803 42.5568 91.6743 47.6712 98.7023 55.053Z" fill="#FEC54F"/>
<path d="M103.654 48.9065C102.17 51.0926 100.512 53.1512 98.7024 55.0532C91.6743 47.6714 82.2803 42.5569 71.7324 40.939C72.7182 40.2664 73.7272 39.6227 74.7594 39.0255V39.0603C74.9739 38.9211 75.1885 38.7935 75.4146 38.6601C75.6408 38.5268 75.8669 38.3992 76.0989 38.2774C76.1974 38.2252 76.296 38.173 76.3946 38.1209C76.8759 37.8715 77.3862 37.6338 77.9139 37.4076C79.7695 36.6074 82.2919 36.2131 85.4754 36.2131C90.7813 36.2131 95.3565 38.0745 99.201 41.7799C101.207 43.7224 102.698 46.0999 103.654 48.9065Z" fill="#FFD888"/>
<path d="M71.7323 40.9386C65.458 45.2471 60.2798 51.0284 56.6962 57.7898C56.2496 55.2963 56.0293 52.6115 56.0293 49.7411C56.0293 46.8707 56.267 43.8438 56.7425 41.0256C59.265 40.6023 61.857 40.3878 64.5013 40.3878C66.9599 40.3878 69.378 40.5733 71.7323 40.9386Z" fill="#FFD888"/>
<path d="M77.3587 29.4463C75.7814 32.3805 74.9232 35.5698 74.7608 39.0258C73.7286 39.6231 72.7197 40.2668 71.7339 40.9394C69.3796 40.5741 66.9615 40.3885 64.5028 40.3885C61.8586 40.3885 59.2666 40.6031 56.7441 41.0264C56.9877 39.5767 57.295 38.1502 57.6661 36.7469C65.0827 36.4048 71.8788 33.7316 77.3587 29.4463Z" fill="#FEC54F"/>
<path d="M95.5703 0.633283C97.3651 0.242226 99.0034 1.65491 99.0034 3.49174C99.0034 6.54967 99.0034 9.05368 99.0034 12.2462C99.0034 13.6838 97.9796 14.9067 96.5883 15.2688C92.4132 16.3556 88.6886 18.098 85.4111 20.4927C88.7396 15.1753 90.6648 8.88367 90.6648 2.15133V1.95997C92.2601 1.43975 93.8949 0.998344 95.5703 0.633283Z" fill="#FEC54F"/>
<path d="M90.6666 1.95999V2.15135C90.6666 8.88368 88.7415 15.1753 85.413 20.4928C84.1025 21.4495 82.8615 22.5107 81.696 23.6763C79.9042 25.4739 78.4545 27.3933 77.3585 29.446C71.8787 33.7313 65.0826 36.4045 57.666 36.7466C59.5622 29.5156 63.1342 22.905 68.3705 16.9149C74.6389 9.7303 82.0729 4.74339 90.6666 1.95999Z" fill="#EBB340"/>
</svg>
