<svg width="184" height="183" viewBox="0 0 184 183" fill="none" xmlns="http://www.w3.org/2000/svg">
<path d="M99.2552 149.176L96.8588 147.608L93.4611 148.376L92.5912 152.996L89.0786 180.062L97.302 183L105.673 179.066L99.2552 149.176Z" fill="#F4C542"/>
<path d="M69.2832 145.061L68.003 142.498L64.6709 141.486L61.6015 145.061L44.9414 166.757L50.5878 173.385L59.8288 174.136L69.2832 145.061Z" fill="#F4C542"/>
<path d="M45.4175 126.581L45.5816 123.741L43.2016 121.194L38.737 122.762L13.4268 133.275L14.9861 141.812L22.5857 147.069L45.4175 126.581Z" fill="#F4C542"/>
<path d="M34.0096 98.7151L35.5854 96.3317L34.8139 92.9524L30.1524 92.1036L2.9545 88.5938L0 96.7724L3.95575 105.098L34.0096 98.7151Z" fill="#F4C542"/>
<path d="M38.1458 68.9066L40.7064 67.6332L41.7404 64.3193L38.1458 61.2666L16.3317 44.697L9.66764 50.3127L8.9126 59.5035L38.1458 68.9066Z" fill="#F4C542"/>
<path d="M56.71 45.1705L59.5824 45.3337L62.1266 42.9667L60.5509 38.5263L49.9967 13.3536L41.4122 14.9045L36.127 22.4628L56.71 45.1705Z" fill="#F4C542"/>
<path d="M84.7453 33.8248L87.1253 35.392L90.5394 34.6247L91.3929 29.9885L94.9219 2.93845L86.6985 0L78.311 3.93426L84.7453 33.8248Z" fill="#F4C542"/>
<path d="M114.701 37.9386L115.997 40.4852L119.329 41.5137L122.399 37.9386L139.043 16.243L133.396 9.61519L124.172 8.86426L114.701 37.9386Z" fill="#F4C542"/>
<path d="M138.583 56.4018L138.418 59.2587L140.798 61.789L145.247 60.2218L170.573 49.725L169.014 41.1872L161.398 35.9307L138.583 56.4018Z" fill="#F4C542"/>
<path d="M149.99 84.2841L148.415 86.6511L149.186 90.0467L153.831 90.8956L181.045 94.4054L184 86.2267L180.044 77.8848L149.99 84.2841Z" fill="#F4C542"/>
<path d="M145.854 114.077L143.277 115.367L142.259 118.681L145.854 121.733L167.668 138.287L174.332 132.671L175.087 123.496L145.854 114.077Z" fill="#F4C542"/>
<path d="M127.274 137.829L124.418 137.666L121.857 140.033L123.433 144.457L134.003 169.646L142.588 168.095L147.873 160.521L127.274 137.829Z" fill="#F4C542"/>
<path d="M83.6783 135.267C83.6783 135.267 73.8299 131.594 71.9916 130.369C70.1532 129.145 54.1332 112.608 54.1332 112.608L47.978 89.3453L52.2785 79.5504L59.041 63.0298L67.6583 53.8554L80.5925 48.3376L98.4508 45.2686L115.685 50.166L131.689 59.3405L134.775 69.7556L139.699 84.4479L137.237 95.467L135.399 106.486L131.098 117.505L120.019 129.129L107.085 135.25L97.2362 137.699L83.6947 135.25L83.6783 135.267Z" fill="#F4C542"/>
</svg>
